<?xml version="1.0" standalone="no"?>
<!DOCTYPE svg PUBLIC "-//W3C//DTD SVG 20010904//EN"
 "http://www.w3.org/TR/2001/REC-SVG-20010904/DTD/svg10.dtd">
<svg version="1.0" xmlns="http://www.w3.org/2000/svg"
 width="246.000000pt" height="66.000000pt" viewBox="0 0 246.000000 66.000000"
 preserveAspectRatio="xMidYMid meet">

<g transform="translate(0.000000,66.000000) scale(0.100000,-0.100000)"
fill="#000000" stroke="none">
<path d="M1442 613 c3 -36 6 -38 66 -62 34 -13 60 -27 56 -30 -3 -3 -31 -15
-62 -27 -54 -20 -57 -23 -60 -57 -2 -21 0 -37 5 -36 4 0 58 21 118 47 103 45
110 49 110 76 0 27 -6 31 -118 77 l-118 48 3 -36z"/>
<path d="M1553 363 c-24 -12 -33 -24 -33 -41 0 -15 -7 -26 -20 -29 -13 -4 -20
-14 -20 -30 0 -16 7 -27 20 -30 18 -5 20 -14 20 -94 0 -109 14 -129 85 -129
43 0 45 1 45 29 0 23 -5 30 -22 33 -21 3 -23 9 -26 81 -3 77 -3 77 23 77 21 0
25 5 25 30 0 25 -4 30 -25 30 -23 0 -25 4 -25 45 0 50 -1 51 -47 28z"/>
<path d="M73 286 c-30 -14 -53 -42 -53 -65 0 -17 66 -13 80 4 18 22 57 19 70
-5 16 -30 4 -40 -50 -40 -97 0 -148 -87 -87 -148 33 -33 94 -37 126 -8 19 17
21 17 21 3 0 -13 10 -17 41 -17 l41 0 -4 115 c-3 109 -4 116 -30 141 -32 33
-106 42 -155 20z m107 -174 c0 -49 -82 -70 -88 -23 -4 29 12 41 56 41 24 0 32
-4 32 -18z"/>
<path d="M370 282 c-64 -32 -90 -132 -53 -209 22 -46 86 -77 139 -67 41 8 89
47 99 82 6 20 3 22 -28 22 -23 0 -39 -7 -48 -19 -14 -19 -28 -25 -60 -22 -39
3 -54 116 -19 151 27 27 46 25 74 -5 15 -16 34 -25 55 -25 35 0 38 8 15 51
-28 55 -109 74 -174 41z"/>
<path d="M680 293 c-32 -12 -71 -59 -81 -96 -33 -124 65 -225 178 -182 41 16
73 54 73 87 0 23 -54 13 -82 -15 -32 -32 -39 -33 -69 -9 -18 15 -23 30 -23 69
-1 82 54 123 90 68 12 -19 25 -25 50 -25 44 0 46 27 6 71 -23 26 -37 32 -78
35 -27 2 -56 1 -64 -3z"/>
<path d="M953 280 c-43 -26 -63 -68 -63 -130 0 -70 22 -107 77 -132 45 -20 68
-19 126 4 23 9 57 52 57 73 0 14 -64 2 -91 -17 -28 -21 -32 -21 -57 -7 -15 8
-28 25 -30 37 -3 21 -1 22 87 22 l91 0 0 36 c0 107 -107 169 -197 114z m105
-52 c26 -26 13 -38 -38 -38 -54 0 -55 1 -40 31 12 22 59 26 78 7z"/>
<path d="M1306 279 c-21 -17 -26 -18 -26 -5 0 12 -10 16 -40 16 l-40 0 0 -140
0 -140 40 0 39 0 3 101 c3 89 6 103 23 114 13 9 28 10 43 4 21 -8 22 -14 22
-114 l0 -105 40 0 40 0 0 110 c0 60 -5 120 -11 133 -22 48 -89 61 -133 26z"/>
<path d="M2111 274 c-30 -25 -31 -25 -31 -5 0 18 -6 21 -40 21 l-40 0 0 -140
0 -140 39 0 39 0 4 90 c3 97 8 105 61 117 24 5 27 10 27 44 0 47 -15 50 -59
13z"/>
<path d="M2263 284 c-57 -28 -88 -123 -62 -191 34 -91 154 -119 225 -52 36 34
32 59 -11 59 -19 0 -35 -4 -35 -10 0 -16 -40 -32 -64 -26 -18 4 -46 42 -46 61
0 2 42 6 93 7 l92 3 -2 42 c-2 53 -16 79 -56 103 -39 24 -91 25 -134 4z m107
-65 c15 -28 11 -31 -49 -27 -51 3 -51 3 -36 26 21 29 70 30 85 1z"/>
<path d="M1700 177 c0 -123 9 -150 57 -168 28 -10 93 5 93 22 0 5 5 9 10 9 6
0 10 -7 10 -15 0 -11 11 -15 40 -15 l40 0 0 140 0 140 -40 0 -40 0 0 -93 c0
-107 -10 -131 -55 -125 l-30 3 -3 108 -3 107 -39 0 -40 0 0 -113z"/>
</g>
</svg>
